{
	"asset":{
		"generator":"Khronos glTF Blender I/O v5.1.20",
		"version":"2.0"
	},
	"scene":0,
	"scenes":[
		{
			"name":"Scene",
			"nodes":[
				0,
				1
			]
		}
	],
	"nodes":[
		{
			"mesh":0,
			"name":"Cube"
		},
		{
			"mesh":1,
			"name":"Portal_Surface"
		}
	],
	"materials":[
		{
			"doubleSided":true,
			"name":"M_GateStone",
			"pbrMetallicRoughness":{
				"baseColorTexture":{
					"index":0
				},
				"metallicFactor":0,
				"roughnessFactor":0.5
			}
		},
		{
			"doubleSided":true,
			"name":"M_PortalTintable1",
			"pbrMetallicRoughness":{
				"baseColorTexture":{
					"index":1
				},
				"metallicFactor":0,
				"roughnessFactor":0.5
			}
		},
		{
			"doubleSided":true,
			"name":"M_PortalTintable",
			"pbrMetallicRoughness":{
				"baseColorFactor":[
					0.800000011920929,
					0.800000011920929,
					0.800000011920929,
					1
				],
				"metallicFactor":0,
				"roughnessFactor":0.5
			}
		}
	],
	"meshes":[
		{
			"name":"Cube",
			"primitives":[
				{
					"attributes":{
						"POSITION":0,
						"NORMAL":1,
						"TEXCOORD_0":2
					},
					"indices":3,
					"material":0
				},
				{
					"attributes":{
						"POSITION":4,
						"NORMAL":5,
						"TEXCOORD_0":6
					},
					"indices":7,
					"material":1
				}
			]
		},
		{
			"name":"Cube.001",
			"primitives":[
				{
					"attributes":{
						"POSITION":8,
						"NORMAL":9,
						"TEXCOORD_0":10
					},
					"indices":11,
					"material":2
				}
			]
		}
	],
	"textures":[
		{
			"sampler":0,
			"source":0
		},
		{
			"sampler":0,
			"source":1
		}
	],
	"images":[
		{
			"mimeType":"image/png",
			"name":"wooden_floor",
			"uri":"wooden_floor.png"
		},
		{
			"mimeType":"image/png",
			"name":"stone_wall",
			"uri":"stone_wall.png"
		}
	],
	"accessors":[
		{
			"bufferView":0,
			"componentType":5126,
			"count":52,
			"max":[
				1,
				1,
				0.18607407808303833
			],
			"min":[
				0.5881105661392212,
				-1,
				-2.2209525108337402
			],
			"type":"VEC3"
		},
		{
			"bufferView":1,
			"componentType":5126,
			"count":52,
			"type":"VEC3"
		},
		{
			"bufferView":2,
			"componentType":5126,
			"count":52,
			"type":"VEC2"
		},
		{
			"bufferView":3,
			"componentType":5123,
			"count":78,
			"type":"SCALAR"
		},
		{
			"bufferView":4,
			"componentType":5126,
			"count":72,
			"max":[
				1.0729925632476807,
				1.4693728685379028,
				0.29334762692451477
			],
			"min":[
				0.5575879812240601,
				1.0106755495071411,
				-2.4005470275878906
			],
			"type":"VEC3"
		},
		{
			"bufferView":5,
			"componentType":5126,
			"count":72,
			"type":"VEC3"
		},
		{
			"bufferView":6,
			"componentType":5126,
			"count":72,
			"type":"VEC2"
		},
		{
			"bufferView":7,
			"componentType":5123,
			"count":108,
			"type":"SCALAR"
		},
		{
			"bufferView":8,
			"componentType":5126,
			"count":16,
			"max":[
				0.7496026754379272,
				1,
				-0.12650582194328308
			],
			"min":[
				0.7332490086555481,
				-1,
				-1.873824119567871
			],
			"type":"VEC3"
		},
		{
			"bufferView":9,
			"componentType":5126,
			"count":16,
			"type":"VEC3"
		},
		{
			"bufferView":10,
			"componentType":5126,
			"count":16,
			"type":"VEC2"
		},
		{
			"bufferView":11,
			"componentType":5123,
			"count":24,
			"type":"SCALAR"
		}
	],
	"bufferViews":[
		{
			"buffer":0,
			"byteLength":624,
			"byteOffset":0,
			"target":34962
		},
		{
			"buffer":0,
			"byteLength":624,
			"byteOffset":624,
			"target":34962
		},
		{
			"buffer":0,
			"byteLength":416,
			"byteOffset":1248,
			"target":34962
		},
		{
			"buffer":0,
			"byteLength":156,
			"byteOffset":1664,
			"target":34963
		},
		{
			"buffer":0,
			"byteLength":864,
			"byteOffset":1820,
			"target":34962
		},
		{
			"buffer":0,
			"byteLength":864,
			"byteOffset":2684,
			"target":34962
		},
		{
			"buffer":0,
			"byteLength":576,
			"byteOffset":3548,
			"target":34962
		},
		{
			"buffer":0,
			"byteLength":216,
			"byteOffset":4124,
			"target":34963
		},
		{
			"buffer":0,
			"byteLength":192,
			"byteOffset":4340,
			"target":34962
		},
		{
			"buffer":0,
			"byteLength":192,
			"byteOffset":4532,
			"target":34962
		},
		{
			"buffer":0,
			"byteLength":128,
			"byteOffset":4724,
			"target":34962
		},
		{
			"buffer":0,
			"byteLength":48,
			"byteOffset":4852,
			"target":34963
		}
	],
	"samplers":[
		{
			"magFilter":9729,
			"minFilter":9987
		}
	],
	"buffers":[
		{
			"byteLength":4900,
			"uri":"door2.bin"
		}
	]
}
